<?xml version="1.0" encoding="UTF-8" standalone="no"?>
<svg
   xmlns:dc="http://purl.org/dc/elements/1.1/"
   xmlns:cc="http://creativecommons.org/ns#"
   xmlns:rdf="http://www.w3.org/1999/02/22-rdf-syntax-ns#"
   xmlns:svg="http://www.w3.org/2000/svg"
   xmlns="http://www.w3.org/2000/svg"
   xmlns:sodipodi="http://sodipodi.sourceforge.net/DTD/sodipodi-0.dtd"
   xmlns:inkscape="http://www.inkscape.org/namespaces/inkscape"
   inkscape:version="1.0 (4035a4fb49, 2020-05-01)"
   sodipodi:docname="mobile_gold.svg"
   version="1.1"
   height="512"
   width="512"
   viewBox="0 0 24 24"
   data-name="Layer 1"
   id="Layer_1">
  <metadata
     id="metadata3789">
    <rdf:RDF>
      <cc:Work
         rdf:about="">
        <dc:format>image/svg+xml</dc:format>
        <dc:type
           rdf:resource="http://purl.org/dc/dcmitype/StillImage" />
      </cc:Work>
    </rdf:RDF>
  </metadata>
  <defs
     id="defs3787" />
  <sodipodi:namedview
     inkscape:current-layer="Layer_1"
     inkscape:window-maximized="1"
     inkscape:window-y="-9"
     inkscape:window-x="-9"
     inkscape:cy="256"
     inkscape:cx="256"
     inkscape:zoom="1.6009145"
     showgrid="false"
     id="namedview3785"
     inkscape:window-height="1001"
     inkscape:window-width="1920"
     inkscape:pageshadow="2"
     inkscape:pageopacity="0"
     guidetolerance="10"
     gridtolerance="10"
     objecttolerance="10"
     borderopacity="1"
     bordercolor="#666666"
     pagecolor="#ffffff" />
  <path
     style="fill:#edd34d;fill-opacity:1"
     id="path3782"
     d="M15.045,0c-.027-.001-6.063-.001-6.09,0-2.736,.024-4.955,2.258-4.955,4.999v14c0,2.757,2.243,5,5,5h6c2.757,0,5-2.243,5-5V5C20,2.258,17.781,.025,15.045,0Zm2.955,18.999c0,1.654-1.346,3-3,3h-6c-1.654,0-3-1.346-3-3V5c0-1.453,1.038-2.667,2.411-2.942l.694,1.389c.169,.339,.516,.553,.895,.553h4c.379,0,.725-.214,.895-.553l.694-1.389c1.373,.274,2.411,1.489,2.411,2.942v14Zm-5,1h-2c-.552,0-1-.448-1-1h0c0-.552,.448-1,1-1h2c.552,0,1,.448,1,1h0c0,.552-.448,1-1,1Z" />
</svg>
